<svg width="212" height="49" viewBox="0 0 212 49" fill="none" xmlns="http://www.w3.org/2000/svg">
<circle cx="24.4999" cy="24.4999" r="17.64" fill="#9A9A9A"/>
<path d="M20.0499 13.6959C21.4506 9.38503 27.5494 9.38503 28.9501 13.6959C29.5765 15.6238 31.373 16.9291 33.4001 16.9291C37.9329 16.9291 39.8175 22.7293 36.1504 25.3936C34.5105 26.5851 33.8243 28.6971 34.4507 30.625C35.8514 34.9359 30.9174 38.5207 27.2503 35.8564C25.6103 34.6649 23.3897 34.6649 21.7497 35.8564C18.0826 38.5207 13.1486 34.9359 14.5493 30.625C15.1757 28.6971 14.4895 26.5851 12.8496 25.3936C9.1825 22.7293 11.0671 16.9291 15.5999 16.9291C17.627 16.9291 19.4235 15.6238 20.0499 13.6959Z" fill="#D9D9D9"/>
<circle cx="24.5001" cy="24.5" r="9.8" fill="#202020"/>
<path d="M61.4062 32.3398C59.5547 32.3398 57.9023 31.918 56.4492 31.0742C54.9883 30.2383 53.8438 29.0859 53.0156 27.6172C52.1953 26.1406 51.7852 24.4805 51.7852 22.6367C51.7852 20.7305 52.1797 19.043 52.9688 17.5742C53.7578 16.1211 54.8711 14.9961 56.3086 14.1992C57.7539 13.3945 59.4531 12.9922 61.4062 12.9922C63.3672 12.9922 65.0664 13.3906 66.5039 14.1875C67.9492 14.9922 69.0586 16.125 69.832 17.5859C70.6133 19.0391 71.0039 20.7227 71.0039 22.6367C71.0039 24.5586 70.5586 26.2812 69.668 27.8047L69.7148 27.7812H71.6133V32H64.1484C63.2266 32.2266 62.3125 32.3398 61.4062 32.3398ZM61.4062 28.2852C61.9531 28.2852 62.418 28.0273 62.8008 27.5117C63.1836 26.9883 63.4727 26.293 63.668 25.4258C63.8711 24.5508 63.9727 23.5898 63.9727 22.543C63.9727 21.5508 63.875 20.6562 63.6797 19.8594C63.4922 19.0547 63.207 18.418 62.8242 17.9492C62.4492 17.4727 61.9766 17.2344 61.4062 17.2344C60.8359 17.2344 60.3555 17.4727 59.9648 17.9492C59.582 18.418 59.293 19.0547 59.0977 19.8594C58.9102 20.6562 58.8164 21.5508 58.8164 22.543C58.8164 23.5898 58.918 24.5508 59.1211 25.4258C59.3242 26.293 59.6172 26.9883 60 27.5117C60.3906 28.0273 60.8594 28.2852 61.4062 28.2852ZM78.5391 32.2109C76.0234 32.2109 74.7656 30.6367 74.7656 27.4883V23.0703H73.2539V19.9062L80.3789 19.2031V27.4883C80.3789 27.793 80.4922 28.0742 80.7188 28.332C80.9453 28.582 81.2109 28.707 81.5156 28.707C81.8672 28.707 82.1406 28.5898 82.3359 28.3555C82.5391 28.1133 82.6406 27.8164 82.6406 27.4648V23.0703H81.5156V19.9062L88.2539 19.2031V28.4727H89.7656V32H82.6406V30.1719C82.2266 30.8125 81.6719 31.3125 80.9766 31.6719C80.2891 32.0312 79.4766 32.2109 78.5391 32.2109ZM95.8711 18.2188C94.8945 18.2188 94.0898 17.9883 93.457 17.5273C92.8242 17.0664 92.5078 16.4023 92.5078 15.5352C92.5078 14.668 92.8242 14.0117 93.457 13.5664C94.0898 13.1211 94.9023 12.8984 95.8945 12.8984C96.8867 12.8984 97.6914 13.1172 98.3086 13.5547C98.9336 13.9922 99.2461 14.6523 99.2461 15.5352C99.2461 16.4023 98.9258 17.0664 98.2852 17.5273C97.6523 17.9883 96.8477 18.2188 95.8711 18.2188ZM100.184 28.4727V32H91.5469V28.4727H93.0586V23.0703H91.5469V20.1875L98.6719 19.4492V28.4727H100.184ZM112.195 32.2109C111.477 32.2109 110.824 32.0625 110.238 31.7656C109.66 31.4609 109.168 31.0898 108.762 30.6523L108.316 32H103.055V17.668H101.543V14.4805L108.668 13.707V20.6914C109.277 20.1992 109.91 19.8281 110.566 19.5781C111.223 19.3281 111.848 19.2031 112.441 19.2031C113.551 19.2031 114.508 19.4922 115.312 20.0703C116.102 20.6484 116.691 21.4297 117.082 22.4141C117.473 23.3984 117.668 24.4883 117.668 25.6836C117.668 26.9414 117.465 28.0586 117.059 29.0352C116.652 30.0195 116.035 30.7969 115.207 31.3672C114.387 31.9297 113.383 32.2109 112.195 32.2109ZM110.496 28.7891C111.059 28.7891 111.523 28.5117 111.891 27.957C112.258 27.4023 112.441 26.7578 112.441 26.0234C112.441 25.1094 112.281 24.3164 111.961 23.6445C111.641 22.9727 111.152 22.6367 110.496 22.6367C110.129 22.6367 109.77 22.7188 109.418 22.8828C109.066 23.0391 108.816 23.2148 108.668 23.4102V28.2031C108.848 28.3516 109.113 28.4883 109.465 28.6133C109.816 28.7305 110.16 28.7891 110.496 28.7891ZM124.547 32.2109C122.031 32.2109 120.773 30.6367 120.773 27.4883V23.0703H119.262V19.9062L126.387 19.2031V27.4883C126.387 27.793 126.5 28.0742 126.727 28.332C126.953 28.582 127.219 28.707 127.523 28.707C127.875 28.707 128.148 28.5898 128.344 28.3555C128.547 28.1133 128.648 27.8164 128.648 27.4648V23.0703H127.523V19.9062L134.262 19.2031V28.4727H135.773V32H128.648V30.1719C128.234 30.8125 127.68 31.3125 126.984 31.6719C126.297 32.0312 125.484 32.2109 124.547 32.2109ZM144.105 32.2109C142.504 32.2109 141.086 31.7891 139.852 30.9453L139.465 32H137.285V27.3711H139.898C140 27.9648 140.277 28.4961 140.73 28.9648C141.184 29.4336 141.707 29.668 142.301 29.668C142.527 29.668 142.723 29.6055 142.887 29.4805C143.059 29.3555 143.145 29.1484 143.145 28.8594C143.145 28.5703 142.98 28.3086 142.652 28.0742C142.316 27.832 141.816 27.5547 141.152 27.2422C140.348 26.8438 139.691 26.4805 139.184 26.1523C138.668 25.8242 138.223 25.3945 137.848 24.8633C137.473 24.3242 137.285 23.6797 137.285 22.9297C137.285 22.1562 137.539 21.4844 138.047 20.9141C138.555 20.3516 139.223 19.9258 140.051 19.6367C140.879 19.3477 141.781 19.2031 142.758 19.2031C144.031 19.2031 145.215 19.5391 146.309 20.2109L146.602 19.4492H148.547V23.1875H146.285C146.09 22.6797 145.809 22.2812 145.441 21.9922C145.074 21.7031 144.645 21.5586 144.152 21.5586C143.574 21.5586 143.285 21.7422 143.285 22.1094C143.293 22.3594 143.445 22.5742 143.742 22.7539C144.039 22.9258 144.52 23.1602 145.184 23.457C145.598 23.6289 145.977 23.8008 146.32 23.9727C146.664 24.1445 146.973 24.3086 147.246 24.4648C147.793 24.7852 148.27 25.2383 148.676 25.8242C149.082 26.4023 149.285 27.125 149.285 27.9922C149.285 28.9141 149.047 29.6875 148.57 30.3125C148.094 30.9453 147.461 31.4219 146.672 31.7422C145.883 32.0547 145.027 32.2109 144.105 32.2109ZM156.727 32.2109C155.594 32.2109 154.613 31.9102 153.785 31.3086C152.965 30.707 152.34 29.9023 151.91 28.8945C151.488 27.8789 151.277 26.7617 151.277 25.543C151.277 24.4414 151.496 23.3984 151.934 22.4141C152.371 21.4453 152.988 20.668 153.785 20.082C154.59 19.4961 155.539 19.2031 156.633 19.2031C157.43 19.2031 158.113 19.332 158.684 19.5898C159.254 19.8477 159.785 20.2305 160.277 20.7383V17.668H158.402V14.4805L165.914 13.707V28.4727H167.402V32H160.184V30.4883C159.801 31.0039 159.312 31.418 158.719 31.7305C158.125 32.0352 157.461 32.1953 156.727 32.2109ZM158.602 28.7891C158.969 28.7891 159.301 28.7031 159.598 28.5312C159.895 28.3516 160.121 28.1406 160.277 27.8984V23.457C160.098 23.2461 159.855 23.0586 159.551 22.8945C159.254 22.7227 158.938 22.6367 158.602 22.6367C157.992 22.6367 157.496 22.8867 157.113 23.3867C156.73 23.8789 156.539 24.5977 156.539 25.543C156.539 26.5039 156.715 27.2852 157.066 27.8867C157.418 28.4883 157.93 28.7891 158.602 28.7891ZM173.414 32.2109C172.617 32.2109 171.895 32.0547 171.246 31.7422C170.59 31.4375 170.066 30.9961 169.676 30.418C169.285 29.8398 169.09 29.168 169.09 28.4023C169.09 27.5742 169.32 26.8711 169.781 26.293C170.242 25.7305 170.844 25.3086 171.586 25.0273C172.336 24.7461 173.145 24.6055 174.012 24.6055C175.035 24.6055 176.02 24.7578 176.965 25.0625V24.5352C176.965 23.9102 176.699 23.4336 176.168 23.1055C175.645 22.7773 174.934 22.6133 174.035 22.6133C173.652 22.6133 173.223 22.6602 172.746 22.7539C172.27 22.8477 171.805 22.9766 171.352 23.1406C170.898 23.3047 170.504 23.4883 170.168 23.6914L169.828 23.5508V20.1406C170.773 19.8047 171.738 19.5664 172.723 19.4258C173.707 19.2773 174.625 19.2031 175.477 19.2031C180.227 19.2031 182.602 20.5391 182.602 23.2109V28.4727H183.703V32H177.703L177.176 30.0781C176.84 30.7344 176.316 31.2539 175.605 31.6367C174.895 32.0195 174.164 32.2109 173.414 32.2109ZM175.617 29.2109C175.875 29.2109 176.137 29.168 176.402 29.082C176.676 28.9961 176.863 28.9062 176.965 28.8125V26.8438C176.848 26.8281 176.66 26.7812 176.402 26.7031C176.137 26.6328 175.906 26.5977 175.711 26.5977C175.297 26.5977 174.965 26.7266 174.715 26.9844C174.473 27.2422 174.352 27.5859 174.352 28.0156C174.352 28.3359 174.465 28.6172 174.691 28.8594C174.926 29.0938 175.234 29.2109 175.617 29.2109ZM209.145 24.0312V28.6133H210.773V32H203.531V24.0078C203.531 23.6719 203.422 23.375 203.203 23.1172C202.984 22.8594 202.723 22.7305 202.418 22.7305C201.848 22.7305 201.488 23.0156 201.34 23.5859C201.184 24.1719 201.105 24.9922 201.105 26.0469V32H195.48V24.0078C195.48 23.6719 195.371 23.375 195.152 23.1172C194.941 22.8594 194.684 22.7305 194.379 22.7305C193.809 22.7305 193.449 23.0156 193.301 23.5859C193.145 24.1719 193.066 24.9922 193.066 26.0469V28.6133H193.09V32H185.766V28.6133H187.465V23.0703H185.766V19.9062L193.066 19.2031V20.9609C193.605 20.3203 194.219 19.8672 194.906 19.6016C195.594 19.3359 196.371 19.2031 197.238 19.2031C199.012 19.2031 200.172 19.957 200.719 21.4648C201.297 20.6445 201.961 20.0625 202.711 19.7188C203.461 19.375 204.316 19.2031 205.277 19.2031C207.855 19.2031 209.145 20.8125 209.145 24.0312Z" fill="#9A9A9A"/>
</svg>
