<svg width="142" height="34" viewBox="0 0 142 34" fill="none" xmlns="http://www.w3.org/2000/svg">
<ellipse cx="20.2452" cy="17.2801" rx="12.2341" ry="9.22319" fill="#202020"/>
<path d="M19.8658 2.57195C17.8504 2.23417 15.7962 2.26426 13.8207 2.6605C11.8452 3.05674 9.98691 3.81137 8.35201 4.88132C6.7171 5.95126 5.33758 7.31556 4.2922 8.89632C3.24682 10.4771 2.55606 12.2433 2.25935 14.0942C1.96265 15.9452 2.06582 17.8445 2.56296 19.6838C3.06011 21.523 3.94149 23.2663 5.1568 24.8139C6.3721 26.3616 7.89753 27.6833 9.64597 28.7037C11.3944 29.7241 13.3316 30.4231 15.3471 30.7609L16.9286 20.8948C16.324 20.7934 15.7428 20.5837 15.2183 20.2776C14.6937 19.9715 14.2361 19.575 13.8715 19.1107C13.5069 18.6464 13.2425 18.1234 13.0934 17.5716C12.9442 17.0198 12.9133 16.45 13.0023 15.8948C13.0913 15.3395 13.2985 14.8096 13.6121 14.3354C13.9258 13.8612 14.3396 13.4519 14.8301 13.1309C15.3206 12.8099 15.878 12.5835 16.4707 12.4647C17.0634 12.3458 17.6796 12.3368 18.2842 12.4381L19.8658 2.57195Z" fill="#9A9A9A"/>
<path d="M24.5274 30.3599C28.631 29.9347 32.4241 28.0903 35.0724 25.2323C37.7206 22.3744 39.0071 18.737 38.6487 15.1204C38.2903 11.5039 36.3164 8.20432 33.1613 5.94766C30.0062 3.691 25.9283 2.66208 21.8247 3.08725L22.7707 12.6327C24.0017 12.5051 25.2251 12.8138 26.1716 13.4908C27.1182 14.1678 27.7103 15.1577 27.8178 16.2426C27.9254 17.3276 27.5394 18.4188 26.745 19.2762C25.9505 20.1336 24.8125 20.6869 23.5815 20.8145L24.5274 30.3599Z" fill="#9A9A9A"/>
<path d="M48.9141 6.98438H52.4062L56.1094 27H53.0391L52.4883 23.4141H48.832L48.3047 27H45.2227L48.9141 6.98438ZM52.1367 21.1289L50.7305 11.1562H50.6016L49.1836 21.1289H52.1367ZM57.8672 10.8633H60.0352L60.293 12.5039C60.6211 11.8945 60.9961 11.4375 61.418 11.1328C61.8477 10.8281 62.2852 10.6758 62.7305 10.6758C63.582 10.6758 64.2109 10.9375 64.6172 11.4609C65.0234 11.9844 65.2266 12.7695 65.2266 13.8164C65.2266 13.9492 65.2148 14.1094 65.1914 14.2969C65.1758 14.4766 65.1484 14.668 65.1094 14.8711C65.0781 15.0664 65.0352 15.2656 64.9805 15.4688C64.9336 15.6641 64.8828 15.8438 64.8281 16.0078H62.7656V14.5078C62.7656 14.1797 62.7422 13.9102 62.6953 13.6992C62.6562 13.4883 62.6016 13.3203 62.5312 13.1953C62.4609 13.0625 62.3789 12.9727 62.2852 12.9258C62.1914 12.8711 62.0898 12.8438 61.9805 12.8438C61.7461 12.8438 61.5273 12.9219 61.3242 13.0781C61.1289 13.2266 60.9648 13.4375 60.832 13.7109V27H57.8672V10.8633ZM70.8633 27.1758C69.5039 27.1758 68.4648 26.6172 67.7461 25.5C67.0352 24.3828 66.6797 22.6797 66.6797 20.3906V17.3438C66.6797 16.3203 66.7539 15.4453 66.9023 14.7188C67.0508 13.9844 67.2461 13.3711 67.4883 12.8789C67.7383 12.3789 68.0195 11.9844 68.332 11.6953C68.6523 11.4062 68.9805 11.1875 69.3164 11.0391C69.6523 10.8828 69.9844 10.7852 70.3125 10.7461C70.6406 10.6992 70.9414 10.6758 71.2148 10.6758C71.7617 10.6758 72.2617 10.75 72.7148 10.8984C73.168 11.0391 73.5586 11.2578 73.8867 11.5547C74.2148 11.8438 74.4688 12.2109 74.6484 12.6562C74.8281 13.1016 74.918 13.625 74.918 14.2266C74.918 14.6016 74.8984 14.9258 74.8594 15.1992C74.8281 15.4648 74.7812 15.7227 74.7188 15.9727H72.3516V15.4336C72.3516 14.6211 72.2539 13.9883 72.0586 13.5352C71.8711 13.0742 71.5586 12.8438 71.1211 12.8438C70.8789 12.8438 70.668 12.9023 70.4883 13.0195C70.3086 13.1289 70.1562 13.3203 70.0312 13.5938C69.9141 13.8672 69.8242 14.2344 69.7617 14.6953C69.707 15.1562 69.6797 15.7344 69.6797 16.4297V21.0117C69.6797 21.7148 69.7031 22.3125 69.75 22.8047C69.7969 23.2969 69.8789 23.6992 69.9961 24.0117C70.1133 24.3164 70.2695 24.5391 70.4648 24.6797C70.6602 24.8203 70.9023 24.8906 71.1914 24.8906C71.3398 24.8906 71.4844 24.8555 71.625 24.7852C71.7656 24.707 71.8867 24.582 71.9883 24.4102C72.0977 24.2383 72.1836 24.0117 72.2461 23.7305C72.3164 23.4414 72.3516 23.0859 72.3516 22.6641V22.1602H74.9062V22.7812C74.9062 24.3125 74.5664 25.4297 73.8867 26.1328C73.2148 26.8281 72.207 27.1758 70.8633 27.1758ZM77.3203 5.68359H80.2852V9.48047L80.1328 12.2461C80.3516 11.9414 80.5859 11.6914 80.8359 11.4961C81.0938 11.293 81.3555 11.1328 81.6211 11.0156C81.8945 10.8906 82.168 10.8047 82.4414 10.7578C82.7227 10.7031 83 10.6758 83.2734 10.6758C84.2188 10.6758 84.9453 11.0078 85.4531 11.6719C85.9688 12.3281 86.2266 13.3164 86.2266 14.6367V27H83.2617V14.7422C83.2617 14.0312 83.1523 13.5391 82.9336 13.2656C82.7148 12.9844 82.3945 12.8438 81.9727 12.8438C81.6758 12.8438 81.375 12.9453 81.0703 13.1484C80.7734 13.3438 80.5117 13.6172 80.2852 13.9688V27H77.3203V5.68359ZM90.8789 8.55469C90.332 8.55469 89.8984 8.39062 89.5781 8.0625C89.2656 7.73438 89.1094 7.25391 89.1094 6.62109C89.1094 6.26953 89.1484 5.97656 89.2266 5.74219C89.3125 5.5 89.4297 5.30859 89.5781 5.16797C89.7344 5.01953 89.9219 4.91406 90.1406 4.85156C90.3594 4.78125 90.6094 4.74609 90.8906 4.74609C91.4766 4.74609 91.9219 4.89453 92.2266 5.19141C92.5312 5.48828 92.6836 5.96484 92.6836 6.62109C92.6836 7.23047 92.5273 7.70703 92.2148 8.05078C91.9102 8.38672 91.4648 8.55469 90.8789 8.55469ZM89.3438 10.8633H92.3086V27H89.3438V10.8633ZM95.7539 12.9727H94.5V10.8633H96.0117L96.6094 6.67969H98.7188V10.8633H101.297V12.9727H98.7188V23.2383C98.7188 23.5898 98.75 23.875 98.8125 24.0938C98.8828 24.3047 98.9766 24.4727 99.0938 24.5977C99.2109 24.7148 99.3477 24.793 99.5039 24.832C99.6602 24.8711 99.8242 24.8906 99.9961 24.8906C100.285 24.8906 100.539 24.8555 100.758 24.7852C100.984 24.7148 101.199 24.6172 101.402 24.4922V26.1328C101.23 26.3438 101.043 26.5156 100.84 26.6484C100.645 26.7812 100.441 26.8906 100.23 26.9766C100.02 27.0547 99.8047 27.1094 99.5859 27.1406C99.3672 27.1719 99.1523 27.1875 98.9414 27.1875C98.5273 27.1875 98.1289 27.1328 97.7461 27.0234C97.3633 26.9141 97.0234 26.707 96.7266 26.4023C96.4297 26.0898 96.1914 25.6602 96.0117 25.1133C95.8398 24.5664 95.7539 23.8555 95.7539 22.9805V12.9727ZM107.227 27.1758C106.531 27.1758 105.914 27.0469 105.375 26.7891C104.844 26.5312 104.395 26.1289 104.027 25.582C103.66 25.0352 103.383 24.3359 103.195 23.4844C103.008 22.625 102.914 21.5938 102.914 20.3906V17.3438C102.914 16.3203 102.988 15.4453 103.137 14.7188C103.293 13.9844 103.492 13.3711 103.734 12.8789C103.984 12.3789 104.27 11.9844 104.59 11.6953C104.918 11.4062 105.254 11.1875 105.598 11.0391C105.941 10.8828 106.281 10.7852 106.617 10.7461C106.961 10.6992 107.277 10.6758 107.566 10.6758C108.098 10.6758 108.609 10.7578 109.102 10.9219C109.594 11.0781 110.027 11.3516 110.402 11.7422C110.777 12.125 111.074 12.6406 111.293 13.2891C111.52 13.9375 111.633 14.7461 111.633 15.7148C111.633 16.043 111.621 16.375 111.598 16.7109C111.582 17.0469 111.559 17.3789 111.527 17.707C111.496 18.0273 111.453 18.3398 111.398 18.6445C111.352 18.9492 111.301 19.2305 111.246 19.4883H105.891V21.1289C105.891 21.832 105.918 22.4258 105.973 22.9102C106.027 23.3867 106.117 23.7734 106.242 24.0703C106.375 24.3594 106.551 24.5703 106.77 24.7031C106.996 24.8281 107.277 24.8906 107.613 24.8906C107.793 24.8906 107.969 24.8555 108.141 24.7852C108.312 24.707 108.461 24.582 108.586 24.4102C108.719 24.2383 108.824 24.0117 108.902 23.7305C108.98 23.4414 109.02 23.0859 109.02 22.6641V22.1602H111.492V22.7812C111.492 24.3125 111.125 25.4297 110.391 26.1328C109.664 26.8281 108.609 27.1758 107.227 27.1758ZM108.867 17.4961C108.875 17.4102 108.883 17.2969 108.891 17.1562C108.898 17.0078 108.902 16.8555 108.902 16.6992C108.91 16.543 108.914 16.3906 108.914 16.2422C108.914 16.0859 108.914 15.9531 108.914 15.8438C108.914 14.7812 108.789 14.0156 108.539 13.5469C108.289 13.0781 107.918 12.8438 107.426 12.8438C107.168 12.8438 106.941 12.9062 106.746 13.0312C106.551 13.1484 106.391 13.3516 106.266 13.6406C106.141 13.9219 106.047 14.2969 105.984 14.7656C105.922 15.2344 105.891 15.8164 105.891 16.5117V17.4961H108.867ZM117.902 27.1758C116.543 27.1758 115.504 26.6172 114.785 25.5C114.074 24.3828 113.719 22.6797 113.719 20.3906V17.3438C113.719 16.3203 113.793 15.4453 113.941 14.7188C114.09 13.9844 114.285 13.3711 114.527 12.8789C114.777 12.3789 115.059 11.9844 115.371 11.6953C115.691 11.4062 116.02 11.1875 116.355 11.0391C116.691 10.8828 117.023 10.7852 117.352 10.7461C117.68 10.6992 117.98 10.6758 118.254 10.6758C118.801 10.6758 119.301 10.75 119.754 10.8984C120.207 11.0391 120.598 11.2578 120.926 11.5547C121.254 11.8438 121.508 12.2109 121.688 12.6562C121.867 13.1016 121.957 13.625 121.957 14.2266C121.957 14.6016 121.938 14.9258 121.898 15.1992C121.867 15.4648 121.82 15.7227 121.758 15.9727H119.391V15.4336C119.391 14.6211 119.293 13.9883 119.098 13.5352C118.91 13.0742 118.598 12.8438 118.16 12.8438C117.918 12.8438 117.707 12.9023 117.527 13.0195C117.348 13.1289 117.195 13.3203 117.07 13.5938C116.953 13.8672 116.863 14.2344 116.801 14.6953C116.746 15.1562 116.719 15.7344 116.719 16.4297V21.0117C116.719 21.7148 116.742 22.3125 116.789 22.8047C116.836 23.2969 116.918 23.6992 117.035 24.0117C117.152 24.3164 117.309 24.5391 117.504 24.6797C117.699 24.8203 117.941 24.8906 118.23 24.8906C118.379 24.8906 118.523 24.8555 118.664 24.7852C118.805 24.707 118.926 24.582 119.027 24.4102C119.137 24.2383 119.223 24.0117 119.285 23.7305C119.355 23.4414 119.391 23.0859 119.391 22.6641V22.1602H121.945V22.7812C121.945 24.3125 121.605 25.4297 120.926 26.1328C120.254 26.8281 119.246 27.1758 117.902 27.1758ZM124.699 12.9727H123.445V10.8633H124.957L125.555 6.67969H127.664V10.8633H130.242V12.9727H127.664V23.2383C127.664 23.5898 127.695 23.875 127.758 24.0938C127.828 24.3047 127.922 24.4727 128.039 24.5977C128.156 24.7148 128.293 24.793 128.449 24.832C128.605 24.8711 128.77 24.8906 128.941 24.8906C129.23 24.8906 129.484 24.8555 129.703 24.7852C129.93 24.7148 130.145 24.6172 130.348 24.4922V26.1328C130.176 26.3438 129.988 26.5156 129.785 26.6484C129.59 26.7812 129.387 26.8906 129.176 26.9766C128.965 27.0547 128.75 27.1094 128.531 27.1406C128.312 27.1719 128.098 27.1875 127.887 27.1875C127.473 27.1875 127.074 27.1328 126.691 27.0234C126.309 26.9141 125.969 26.707 125.672 26.4023C125.375 26.0898 125.137 25.6602 124.957 25.1133C124.785 24.5664 124.699 23.8555 124.699 22.9805V12.9727ZM136.348 27.1758C136.004 27.1758 135.652 27.1484 135.293 27.0938C134.941 27.0391 134.598 26.9258 134.262 26.7539C133.934 26.582 133.621 26.3359 133.324 26.0156C133.035 25.6953 132.781 25.2734 132.562 24.75C132.344 24.2266 132.172 23.582 132.047 22.8164C131.922 22.0508 131.859 21.1367 131.859 20.0742V17.543C131.859 16.4961 131.922 15.6016 132.047 14.8594C132.18 14.1094 132.355 13.4805 132.574 12.9727C132.801 12.4648 133.062 12.0625 133.359 11.7656C133.656 11.4609 133.969 11.2305 134.297 11.0742C134.633 10.9102 134.977 10.8047 135.328 10.7578C135.68 10.7031 136.023 10.6758 136.359 10.6758C136.68 10.6758 137.012 10.6992 137.355 10.7461C137.699 10.793 138.035 10.8945 138.363 11.0508C138.691 11.1992 139 11.4258 139.289 11.7305C139.586 12.0273 139.844 12.4297 140.062 12.9375C140.289 13.4453 140.465 14.0781 140.59 14.8359C140.723 15.5859 140.789 16.4883 140.789 17.543V20.0742C140.789 21.1211 140.723 22.0234 140.59 22.7812C140.457 23.5391 140.277 24.1797 140.051 24.7031C139.824 25.2266 139.562 25.6523 139.266 25.9805C138.969 26.3008 138.656 26.5508 138.328 26.7305C138 26.9102 137.664 27.0273 137.32 27.082C136.984 27.1445 136.66 27.1758 136.348 27.1758ZM136.371 24.8906C136.637 24.8906 136.859 24.8242 137.039 24.6914C137.227 24.5508 137.375 24.3242 137.484 24.0117C137.602 23.6992 137.684 23.2891 137.73 22.7812C137.785 22.2656 137.812 21.6289 137.812 20.8711V16.8984C137.812 16.1406 137.785 15.5039 137.73 14.9883C137.684 14.4727 137.602 14.0586 137.484 13.7461C137.375 13.4258 137.227 13.1953 137.039 13.0547C136.859 12.9141 136.637 12.8438 136.371 12.8438C136.09 12.8438 135.852 12.9141 135.656 13.0547C135.469 13.1953 135.312 13.4258 135.188 13.7461C135.062 14.0586 134.973 14.4727 134.918 14.9883C134.863 15.5039 134.836 16.1406 134.836 16.8984V20.8711C134.836 21.6289 134.863 22.2656 134.918 22.7812C134.973 23.2891 135.062 23.6992 135.188 24.0117C135.312 24.3242 135.469 24.5508 135.656 24.6914C135.852 24.8242 136.09 24.8906 136.371 24.8906Z" fill="#9A9A9A"/>
</svg>
