<svg width="160" height="32" viewBox="0 0 160 32" fill="none" xmlns="http://www.w3.org/2000/svg">
<path d="M49.92 25V8.2H55.104V20.584H62.304V25H49.92ZM68.5843 25.216C67.5123 25.216 66.5603 24.936 65.7283 24.376C64.8963 23.8 64.2403 23.016 63.7603 22.024C63.2803 21.016 63.0403 19.864 63.0403 18.568C63.0403 17.256 63.2723 16.104 63.7363 15.112C64.2163 14.104 64.8723 13.32 65.7043 12.76C66.5523 12.184 67.5283 11.896 68.6323 11.896C69.2083 11.896 69.7363 11.976 70.2163 12.136C70.6963 12.296 71.1203 12.52 71.4883 12.808C71.8563 13.096 72.1763 13.432 72.4483 13.816C72.7203 14.184 72.9523 14.584 73.1443 15.016L72.1603 14.992V12.16H76.9363V25H72.0403V21.856L73.1203 21.952C72.9603 22.416 72.7363 22.848 72.4483 23.248C72.1763 23.648 71.8483 23.992 71.4643 24.28C71.0803 24.568 70.6483 24.8 70.1683 24.976C69.6883 25.136 69.1603 25.216 68.5843 25.216ZM69.9763 21.256C70.4403 21.256 70.8323 21.152 71.1523 20.944C71.4883 20.736 71.7363 20.432 71.8963 20.032C72.0723 19.632 72.1603 19.144 72.1603 18.568C72.1603 17.992 72.0723 17.504 71.8963 17.104C71.7363 16.688 71.4883 16.376 71.1523 16.168C70.8323 15.96 70.4403 15.856 69.9763 15.856C69.5123 15.856 69.1203 15.96 68.8003 16.168C68.4803 16.376 68.2323 16.688 68.0563 17.104C67.8963 17.504 67.8163 17.992 67.8163 18.568C67.8163 19.144 67.8963 19.632 68.0563 20.032C68.2323 20.432 68.4803 20.736 68.8003 20.944C69.1203 21.152 69.5123 21.256 69.9763 21.256ZM88.7134 25.264C88.1214 25.264 87.5614 25.192 87.0334 25.048C86.5054 24.904 86.0334 24.704 85.6174 24.448C85.2174 24.192 84.8814 23.888 84.6094 23.536C84.3374 23.184 84.1614 22.8 84.0814 22.384L85.0654 22.168L84.6814 25H80.2894V7.24H85.1854V15.304L84.1054 14.968C84.2014 14.536 84.3854 14.136 84.6574 13.768C84.9454 13.384 85.2894 13.056 85.6894 12.784C86.0894 12.496 86.5374 12.28 87.0334 12.136C87.5294 11.976 88.0494 11.896 88.5934 11.896C89.6814 11.896 90.6414 12.184 91.4734 12.76C92.3214 13.336 92.9854 14.128 93.4654 15.136C93.9454 16.144 94.1854 17.296 94.1854 18.592C94.1854 19.904 93.9454 21.064 93.4654 22.072C93.0014 23.064 92.3534 23.848 91.5214 24.424C90.7054 24.984 89.7694 25.264 88.7134 25.264ZM87.2494 21.304C87.7134 21.304 88.1054 21.2 88.4254 20.992C88.7454 20.768 88.9854 20.456 89.1454 20.056C89.3214 19.656 89.4094 19.168 89.4094 18.592C89.4094 18.016 89.3214 17.528 89.1454 17.128C88.9854 16.712 88.7454 16.4 88.4254 16.192C88.1054 15.984 87.7134 15.88 87.2494 15.88C86.7854 15.88 86.3854 15.984 86.0494 16.192C85.7294 16.4 85.4814 16.712 85.3054 17.128C85.1454 17.528 85.0654 18.016 85.0654 18.592C85.0654 19.168 85.1454 19.656 85.3054 20.056C85.4814 20.456 85.7294 20.768 86.0494 20.992C86.3854 21.2 86.7854 21.304 87.2494 21.304ZM102.842 25.24C101.45 25.24 100.21 24.952 99.1224 24.376C98.0344 23.8 97.1784 23.016 96.5544 22.024C95.9304 21.016 95.6184 19.864 95.6184 18.568C95.6184 17.272 95.9304 16.128 96.5544 15.136C97.1784 14.128 98.0344 13.336 99.1224 12.76C100.21 12.184 101.45 11.896 102.842 11.896C104.234 11.896 105.466 12.184 106.538 12.76C107.626 13.336 108.474 14.128 109.082 15.136C109.706 16.128 110.018 17.272 110.018 18.568C110.018 19.864 109.706 21.016 109.082 22.024C108.474 23.016 107.626 23.8 106.538 24.376C105.466 24.952 104.234 25.24 102.842 25.24ZM102.842 21.16C103.274 21.16 103.658 21.048 103.994 20.824C104.346 20.6 104.618 20.296 104.81 19.912C105.002 19.512 105.098 19.064 105.098 18.568C105.098 18.056 105.002 17.608 104.81 17.224C104.618 16.824 104.346 16.512 103.994 16.288C103.658 16.064 103.274 15.952 102.842 15.952C102.394 15.952 101.994 16.064 101.642 16.288C101.306 16.512 101.034 16.824 100.826 17.224C100.634 17.608 100.538 18.056 100.538 18.568C100.538 19.064 100.634 19.512 100.826 19.912C101.034 20.296 101.306 20.6 101.642 20.824C101.994 21.048 102.394 21.16 102.842 21.16ZM112.422 25V12.16H116.934L117.222 16.432L116.142 15.76C116.35 15.024 116.678 14.368 117.126 13.792C117.574 13.2 118.11 12.736 118.734 12.4C119.374 12.064 120.054 11.896 120.774 11.896C121.062 11.896 121.334 11.92 121.59 11.968C121.846 12 122.094 12.048 122.334 12.112L120.99 17.512C120.83 17.4 120.574 17.296 120.222 17.2C119.886 17.104 119.518 17.056 119.118 17.056C118.83 17.056 118.566 17.104 118.326 17.2C118.102 17.28 117.91 17.408 117.75 17.584C117.606 17.76 117.494 17.968 117.414 18.208C117.334 18.448 117.294 18.728 117.294 19.048V25H112.422ZM129.514 30.52C128.554 30.52 127.69 30.368 126.922 30.064C126.154 29.776 125.49 29.424 124.93 29.008L125.482 27.88C125.802 28.152 126.17 28.392 126.586 28.6C127.002 28.824 127.458 29 127.954 29.128C128.466 29.256 129.01 29.32 129.586 29.32C130.546 29.32 131.378 29.12 132.082 28.72C132.786 28.336 133.322 27.752 133.69 26.968C134.074 26.2 134.266 25.24 134.266 24.088V21.736L134.602 21.424C134.394 22.144 134.034 22.792 133.522 23.368C133.01 23.944 132.386 24.4 131.65 24.736C130.93 25.072 130.146 25.24 129.298 25.24C128.162 25.24 127.146 24.96 126.25 24.4C125.354 23.84 124.642 23.072 124.114 22.096C123.602 21.12 123.346 20.008 123.346 18.76C123.346 17.496 123.61 16.376 124.138 15.4C124.682 14.424 125.402 13.656 126.298 13.096C127.194 12.536 128.194 12.256 129.298 12.256C129.81 12.256 130.298 12.32 130.762 12.448C131.242 12.576 131.682 12.752 132.082 12.976C132.498 13.2 132.874 13.472 133.21 13.792C133.546 14.112 133.826 14.464 134.05 14.848C134.29 15.232 134.474 15.64 134.602 16.072L134.146 15.76L134.266 12.52H135.466V24.232C135.466 25.24 135.322 26.128 135.034 26.896C134.746 27.68 134.33 28.336 133.786 28.864C133.258 29.408 132.626 29.816 131.89 30.088C131.17 30.376 130.378 30.52 129.514 30.52ZM129.466 24.04C130.378 24.04 131.194 23.816 131.914 23.368C132.65 22.904 133.226 22.28 133.642 21.496C134.074 20.696 134.29 19.776 134.29 18.736C134.29 17.712 134.082 16.808 133.666 16.024C133.25 15.224 132.674 14.6 131.938 14.152C131.218 13.688 130.394 13.456 129.466 13.456C128.522 13.456 127.682 13.688 126.946 14.152C126.226 14.6 125.658 15.224 125.242 16.024C124.826 16.808 124.618 17.712 124.618 18.736C124.618 19.744 124.818 20.648 125.218 21.448C125.634 22.248 126.202 22.88 126.922 23.344C127.658 23.808 128.506 24.04 129.466 24.04ZM144.427 25.24C143.179 25.24 142.067 24.96 141.091 24.4C140.131 23.84 139.371 23.064 138.811 22.072C138.267 21.08 137.995 19.952 137.995 18.688C137.995 17.44 138.267 16.336 138.811 15.376C139.371 14.4 140.131 13.64 141.091 13.096C142.067 12.536 143.179 12.256 144.427 12.256C145.675 12.256 146.779 12.536 147.739 13.096C148.715 13.64 149.475 14.4 150.019 15.376C150.563 16.336 150.835 17.44 150.835 18.688C150.835 19.952 150.563 21.08 150.019 22.072C149.475 23.064 148.715 23.84 147.739 24.4C146.779 24.96 145.675 25.24 144.427 25.24ZM144.427 24.04C145.419 24.04 146.299 23.808 147.067 23.344C147.851 22.88 148.459 22.248 148.891 21.448C149.339 20.648 149.563 19.728 149.563 18.688C149.563 17.68 149.339 16.784 148.891 16C148.459 15.2 147.851 14.576 147.067 14.128C146.299 13.68 145.419 13.456 144.427 13.456C143.419 13.456 142.523 13.68 141.739 14.128C140.971 14.576 140.363 15.2 139.915 16C139.483 16.784 139.267 17.68 139.267 18.688C139.267 19.728 139.483 20.648 139.915 21.448C140.363 22.248 140.971 22.88 141.739 23.344C142.523 23.808 143.419 24.04 144.427 24.04ZM153.346 25V12.52H154.498L154.618 15.304H154.45C154.626 14.776 154.898 14.28 155.266 13.816C155.634 13.352 156.082 12.976 156.61 12.688C157.154 12.4 157.778 12.256 158.482 12.256C158.754 12.256 159.002 12.28 159.226 12.328C159.466 12.36 159.682 12.4 159.874 12.448L159.514 13.84C159.29 13.744 159.074 13.68 158.866 13.648C158.658 13.616 158.474 13.6 158.314 13.6C157.674 13.6 157.114 13.712 156.634 13.936C156.17 14.16 155.778 14.472 155.458 14.872C155.154 15.256 154.922 15.696 154.762 16.192C154.618 16.688 154.546 17.208 154.546 17.752V25H153.346Z" fill="#9A9A9A"/>
<rect width="34.5679" height="31.1111" rx="5" fill="#9A9A9A"/>
<ellipse cx="17.2839" cy="15.3084" rx="10.3704" ry="9.87654" fill="#202020"/>
<ellipse cx="27.9011" cy="15.5556" rx="12.0988" ry="15.5556" fill="#D9D9D9"/>
</svg>
