<svg width="121" height="62" viewBox="0 0 121 62" fill="none" xmlns="http://www.w3.org/2000/svg">
<path d="M37.9268 44.1895C37.9074 39.622 35.8947 35.2416 32.3315 32.0119C28.7683 28.7822 23.9465 26.9678 18.9268 26.9678C13.9071 26.9678 9.10071 28.7822 5.56497 32.0119C2.02924 35.2416 0.0537869 39.622 0.0732 44.1895H10.8966C10.8882 42.234 11.734 40.3585 13.2478 38.9757C14.7617 37.5929 16.8195 36.8161 18.9687 36.8161C21.1178 36.8161 23.1823 37.5929 24.7078 38.9757C26.2334 40.3585 27.0951 42.234 27.1034 44.1895H37.9268Z" fill="#D9D9D9"/>
<path d="M37.9244 16.0806C37.9337 18.1923 37.4534 20.2834 36.5108 22.2344C35.5682 24.1854 34.1819 25.9581 32.4309 27.4513C30.68 28.9445 28.5987 30.129 26.306 30.9371C24.0132 31.7453 21.5539 32.1612 19.0684 32.1612C16.5829 32.1612 14.1199 31.7453 11.82 30.9371C9.52019 30.129 7.4285 28.9445 5.6644 27.4513C3.90031 25.9581 2.49837 24.1854 1.53862 22.2344C0.578868 20.2834 0.0801045 18.1923 0.0708063 16.0806L10.7612 16.0806C10.7652 16.9996 10.9823 17.9095 11.3999 18.7586C11.8176 19.6076 12.4277 20.379 13.1954 21.0288C13.963 21.6786 14.8733 22.1941 15.8741 22.5458C16.875 22.8974 17.9468 23.0784 19.0284 23.0784C20.11 23.0784 21.1803 22.8974 22.178 22.5458C23.1758 22.1941 24.0815 21.6786 24.8434 21.0288C25.6054 20.379 26.2087 19.6076 26.6189 18.7586C27.029 17.9095 27.2381 16.9996 27.234 16.0806H37.9244Z" fill="#9A9A9A"/>
<path d="M48.44 37C48.552 37 48.664 36.888 48.776 36.664C48.888 36.44 48.944 36.072 48.944 35.56V24.04C48.944 23.528 48.888 23.168 48.776 22.96C48.664 22.736 48.552 22.616 48.44 22.6H52.136C52.024 22.6 51.912 22.712 51.8 22.936C51.688 23.16 51.632 23.536 51.632 24.064V34.312C51.632 34.664 51.672 34.88 51.752 34.96C51.848 35.024 52.136 35.056 52.616 35.056H58.688C59.616 35.056 60.36 34.952 60.92 34.744C61.496 34.52 61.872 34.304 62.048 34.096L61.568 36.496V37H48.44ZM63.3853 37C63.4973 37 63.6013 36.888 63.6973 36.664C63.8093 36.44 63.8652 36.072 63.8652 35.56V27.208C63.8652 26.696 63.8093 26.336 63.6973 26.128C63.6013 25.904 63.4973 25.784 63.3853 25.768H66.3133V35.56C66.3133 36.072 66.3613 36.44 66.4573 36.664C66.5693 36.888 66.6813 37 66.7933 37H63.3853ZM64.8493 23.464C64.3853 23.464 64.0253 23.336 63.7693 23.08C63.5133 22.808 63.3853 22.496 63.3853 22.144C63.3853 21.776 63.5053 21.464 63.7453 21.208C64.0013 20.952 64.3693 20.824 64.8493 20.824C65.3293 20.824 65.6893 20.952 65.9293 21.208C66.1853 21.464 66.3133 21.776 66.3133 22.144C66.3133 22.496 66.1853 22.808 65.9293 23.08C65.6733 23.336 65.3133 23.464 64.8493 23.464ZM75.5182 37.24C74.6382 37.24 73.8942 37.136 73.2862 36.928C72.6942 36.72 72.1902 36.432 71.7742 36.064L71.7262 36.088L71.7742 36.544V37H68.8462C68.9582 37 69.0622 36.888 69.1582 36.664C69.2702 36.44 69.3262 36.072 69.3262 35.56V21.88C69.3262 21.368 69.2702 21.008 69.1582 20.8C69.0622 20.576 68.9582 20.456 68.8462 20.44H71.7742V26.248L71.7262 26.704L71.7742 26.752C71.9822 26.544 72.2622 26.352 72.6142 26.176C72.9822 25.984 73.4142 25.832 73.9102 25.72C74.4062 25.592 74.9422 25.528 75.5182 25.528C77.0062 25.528 78.1822 25.792 79.0462 26.32C79.9102 26.832 80.5262 27.528 80.8942 28.408C81.2782 29.288 81.4702 30.288 81.4702 31.408C81.4702 32.512 81.2862 33.504 80.9182 34.384C80.5502 35.264 79.9342 35.96 79.0702 36.472C78.2062 36.984 77.0222 37.24 75.5182 37.24ZM75.2782 35.536C76.2702 35.536 77.0382 35.376 77.5822 35.056C78.1262 34.736 78.5022 34.272 78.7102 33.664C78.9182 33.04 79.0222 32.288 79.0222 31.408C79.0222 30.528 78.9102 29.776 78.6862 29.152C78.4782 28.528 78.1022 28.048 77.5582 27.712C77.0302 27.376 76.2702 27.208 75.2782 27.208C74.3182 27.208 73.5822 27.4 73.0702 27.784C72.5742 28.152 72.2302 28.656 72.0382 29.296C71.8622 29.936 71.7742 30.64 71.7742 31.408C71.7742 32.672 72.0222 33.68 72.5182 34.432C73.0142 35.168 73.9342 35.536 75.2782 35.536ZM89.4483 37.24C88.1843 37.24 87.1443 37.096 86.3283 36.808C85.5123 36.504 84.8723 36.088 84.4083 35.56C83.9443 35.032 83.6163 34.416 83.4243 33.712C83.2483 33.008 83.1603 32.24 83.1603 31.408C83.1603 29.6 83.6723 28.168 84.6963 27.112C85.7363 26.056 87.2723 25.528 89.3043 25.528C90.4883 25.528 91.4403 25.688 92.1603 26.008C92.8963 26.328 93.4483 26.752 93.8163 27.28C94.2003 27.808 94.4563 28.384 94.5843 29.008C94.7283 29.616 94.8003 30.216 94.8003 30.808V31.936C94.8003 31.888 94.5763 31.84 94.1283 31.792C93.6963 31.728 92.9603 31.696 91.9203 31.696H85.6083C85.6083 32.88 85.9603 33.816 86.6643 34.504C87.3683 35.192 88.4163 35.536 89.8083 35.536C91.0083 35.536 91.9923 35.392 92.7603 35.104C93.5443 34.8 94.0643 34.504 94.3203 34.216V34.696L94.5603 36.28C94.2083 36.488 93.5843 36.704 92.6883 36.928C91.8083 37.136 90.7283 37.24 89.4483 37.24ZM86.5683 30.112H92.4003C92.4003 29.696 92.3123 29.264 92.1363 28.816C91.9603 28.368 91.6483 27.992 91.2003 27.688C90.7523 27.368 90.1203 27.208 89.3043 27.208C88.6163 27.208 88.0163 27.328 87.5043 27.568C86.9923 27.792 86.5923 28.088 86.3043 28.456C86.0323 28.824 85.8963 29.216 85.8963 29.632C85.8963 29.792 85.9443 29.912 86.0403 29.992C86.1363 30.072 86.3123 30.112 86.5683 30.112ZM96.854 37C96.966 37 97.07 36.888 97.166 36.664C97.278 36.44 97.334 36.072 97.334 35.56V27.448C97.334 26.936 97.278 26.576 97.166 26.368C97.07 26.144 96.966 26.024 96.854 26.008C97.558 26.008 98.166 25.96 98.678 25.864C99.206 25.752 99.574 25.64 99.782 25.528V26.728L99.734 27.136L99.782 27.184C100.022 26.864 100.31 26.584 100.646 26.344C100.998 26.088 101.398 25.888 101.846 25.744C102.294 25.6 102.806 25.528 103.382 25.528C104.134 25.528 104.782 25.64 105.326 25.864C105.886 26.072 106.286 26.288 106.526 26.512L106.046 28.528V29.248C105.838 28.992 105.534 28.728 105.134 28.456C104.75 28.168 104.31 27.928 103.814 27.736C103.318 27.544 102.79 27.448 102.23 27.448C101.59 27.448 101.022 27.704 100.526 28.216C100.03 28.728 99.782 29.576 99.782 30.76V35.56C99.782 36.072 99.83 36.44 99.926 36.664C100.038 36.888 100.15 37 100.262 37H96.854ZM113.305 37.24C111.705 37.24 110.449 36.984 109.537 36.472C108.641 35.96 108.009 35.264 107.641 34.384C107.289 33.504 107.113 32.512 107.113 31.408C107.113 30.288 107.297 29.288 107.665 28.408C108.049 27.528 108.689 26.832 109.585 26.32C110.481 25.792 111.721 25.528 113.305 25.528C114.889 25.528 116.129 25.792 117.025 26.32C117.921 26.832 118.553 27.528 118.921 28.408C119.305 29.288 119.497 30.288 119.497 31.408C119.497 32.512 119.313 33.504 118.945 34.384C118.593 35.264 117.969 35.96 117.073 36.472C116.177 36.984 114.921 37.24 113.305 37.24ZM113.305 35.536C114.297 35.536 115.065 35.376 115.609 35.056C116.153 34.736 116.529 34.272 116.737 33.664C116.945 33.04 117.049 32.288 117.049 31.408C117.049 30.528 116.937 29.776 116.713 29.152C116.505 28.528 116.129 28.048 115.585 27.712C115.057 27.376 114.297 27.208 113.305 27.208C112.329 27.208 111.569 27.384 111.025 27.736C110.481 28.072 110.097 28.56 109.873 29.2C109.665 29.824 109.561 30.568 109.561 31.432C109.561 32.28 109.665 33.016 109.873 33.64C110.081 34.248 110.457 34.72 111.001 35.056C111.545 35.376 112.313 35.536 113.305 35.536Z" fill="#9A9A9A"/>
</svg>
