<svg width="193" height="40" viewBox="0 0 193 40" fill="none" xmlns="http://www.w3.org/2000/svg">
<path d="M38 13.7221C38 22.4595 31.2739 39.1274 19.6843 39.1274C8.09464 39.1274 0 22.4595 0 13.7221C0 4.98481 8.09464 25.8611 19.6843 25.8611C31.2739 25.8611 38 4.98481 38 13.7221Z" fill="#9A9A9A"/>
<circle cx="19.2638" cy="10.5556" r="10.5556" fill="#D9D9D9"/>
<path d="M48.12 30.76C48.2 29.72 48.24 28.44 48.24 26.92V15.688C48.032 15.688 47.688 15.728 47.208 15.808C46.728 15.888 46.304 15.968 45.936 16.048L45.84 15.904L46.392 14.2H52.296C53.8 14.2 55.072 14.4 56.112 14.8C57.168 15.184 57.96 15.752 58.488 16.504C59.032 17.24 59.304 18.128 59.304 19.168C59.304 20.272 59 21.208 58.392 21.976C57.784 22.744 56.896 23.304 55.728 23.656L58.488 27.112C58.888 27.608 59.368 28.176 59.928 28.816C60.504 29.456 61.088 30.096 61.68 30.736V31H56.112L55.584 29.296L55.68 29.152C55.808 29.184 55.944 29.224 56.088 29.272C56.232 29.304 56.384 29.344 56.544 29.392C57.344 29.632 57.872 29.76 58.128 29.776L53.616 24.088C53.424 24.104 53.208 24.12 52.968 24.136C52.744 24.152 52.52 24.16 52.296 24.16H50.304V26.92C50.304 28.44 50.336 29.72 50.4 30.76V31H48.12V30.76ZM52.512 22.576C54.048 22.576 55.216 22.288 56.016 21.712C56.816 21.12 57.216 20.288 57.216 19.216C57.216 18.176 56.808 17.368 55.992 16.792C55.192 16.2 54.032 15.904 52.512 15.904H50.304V22.576H52.512ZM71.2697 31.672L71.9657 29.896C71.8697 29.944 71.7657 30.008 71.6537 30.088C71.5417 30.168 71.4137 30.248 71.2697 30.328C70.9017 30.6 70.4937 30.824 70.0457 31C69.6137 31.16 69.1017 31.24 68.5097 31.24C67.3897 31.24 66.3657 30.976 65.4377 30.448C64.5257 29.92 63.8057 29.184 63.2777 28.24C62.7497 27.296 62.4857 26.232 62.4857 25.048C62.4857 23.848 62.7577 22.776 63.3017 21.832C63.8457 20.872 64.5817 20.12 65.5097 19.576C66.4537 19.032 67.4937 18.76 68.6297 18.76C69.7977 18.76 70.8297 19.024 71.7257 19.552C72.6377 20.08 73.3497 20.816 73.8617 21.76C74.3737 22.688 74.6297 23.744 74.6297 24.928C74.6297 25.072 74.6297 25.208 74.6297 25.336C74.6297 25.448 74.6217 25.568 74.6057 25.696H64.2857C64.3657 26.464 64.5897 27.16 64.9577 27.784C65.3417 28.392 65.8377 28.872 66.4457 29.224C67.0697 29.56 67.7737 29.728 68.5577 29.728C69.2137 29.728 69.8217 29.6 70.3817 29.344C70.9577 29.072 71.4377 28.728 71.8217 28.312C72.2217 27.896 72.5017 27.464 72.6617 27.016L72.6857 26.968L74.1977 27.352L72.9977 31.768H71.3657L71.2697 31.672ZM72.7817 24.232C72.6857 23.448 72.4537 22.76 72.0857 22.168C71.7337 21.576 71.2457 21.12 70.6217 20.8C70.0137 20.48 69.3257 20.32 68.5577 20.32C67.7897 20.32 67.0937 20.488 66.4697 20.824C65.8617 21.144 65.3657 21.6 64.9817 22.192C64.6137 22.784 64.3897 23.464 64.3097 24.232H72.7817ZM86.814 23.656C86.574 23.016 86.262 22.448 85.878 21.952C85.51 21.456 85.062 21.064 84.534 20.776C84.006 20.488 83.414 20.344 82.758 20.344C81.974 20.344 81.27 20.544 80.646 20.944C80.038 21.344 79.558 21.904 79.206 22.624C78.87 23.328 78.702 24.12 78.702 25C78.702 25.88 78.87 26.68 79.206 27.4C79.558 28.104 80.046 28.656 80.67 29.056C81.294 29.456 81.998 29.656 82.782 29.656C83.486 29.656 84.102 29.496 84.63 29.176C85.174 28.856 85.63 28.44 85.998 27.928C86.382 27.416 86.694 26.832 86.934 26.176L88.494 26.584L87.102 31.768H85.47L85.398 31.648L86.07 29.896C85.846 30.04 85.598 30.192 85.326 30.352C84.958 30.608 84.55 30.824 84.102 31C83.654 31.176 83.142 31.264 82.566 31.264C81.51 31.264 80.542 30.992 79.662 30.448C78.782 29.904 78.086 29.152 77.574 28.192C77.062 27.232 76.806 26.16 76.806 24.976C76.806 23.792 77.062 22.728 77.574 21.784C78.086 20.84 78.782 20.096 79.662 19.552C80.542 19.008 81.534 18.736 82.638 18.736C83.198 18.736 83.694 18.824 84.126 19C84.558 19.16 84.95 19.368 85.302 19.624C85.414 19.688 85.518 19.752 85.614 19.816C85.726 19.88 85.822 19.928 85.902 19.96L85.254 18.4L85.35 18.256H87.006L88.326 23.248L86.814 23.656ZM97.3268 31.24C96.2708 31.24 95.3588 31.008 94.5908 30.544C93.8228 30.08 93.2308 29.416 92.8148 28.552C92.3988 27.688 92.1908 26.672 92.1908 25.504V20.368C91.9028 20.368 91.3668 20.464 90.5828 20.656L90.2708 20.728L90.1748 20.584L90.6548 19H92.5028C92.7268 19 92.9988 18.992 93.3188 18.976C93.6548 18.96 93.9028 18.936 94.0628 18.904V19.096C94.0148 20.184 93.9908 21.512 93.9908 23.08V25.456C93.9908 26.72 94.3188 27.728 94.9748 28.48C95.6308 29.216 96.5188 29.584 97.6388 29.584C98.3108 29.584 98.9268 29.4 99.4868 29.032C100.063 28.664 100.511 28.16 100.831 27.52C101.151 26.864 101.311 26.144 101.311 25.36V22.792C101.311 21.56 101.271 20.368 101.191 19.216V19H101.623C101.863 19 102.143 18.992 102.463 18.976C102.799 18.96 103.039 18.936 103.183 18.904L103.207 19.096C103.143 20.36 103.111 21.688 103.111 23.08V29.632C103.399 29.632 103.919 29.536 104.671 29.344C104.735 29.328 104.791 29.32 104.839 29.32C104.903 29.304 104.967 29.288 105.031 29.272L105.103 29.416L104.647 31H101.431V30.76C101.447 30.616 101.455 30.464 101.455 30.304C101.455 30.144 101.463 29.976 101.479 29.8C101.479 29.64 101.479 29.48 101.479 29.32C101.495 29.16 101.503 29 101.503 28.84C101.087 29.576 100.511 30.16 99.7748 30.592C99.0548 31.024 98.2388 31.24 97.3268 31.24ZM115.974 23.392C115.67 22.736 115.278 22.176 114.798 21.712C114.334 21.232 113.798 20.872 113.19 20.632C112.598 20.376 111.974 20.248 111.318 20.248C110.534 20.248 109.918 20.4 109.47 20.704C109.022 21.008 108.798 21.416 108.798 21.928C108.798 22.36 108.958 22.72 109.278 23.008C109.598 23.28 109.998 23.504 110.478 23.68C110.958 23.84 111.606 24.024 112.422 24.232C112.47 24.248 112.51 24.264 112.542 24.28C112.59 24.28 112.63 24.28 112.662 24.28C112.742 24.296 112.814 24.312 112.878 24.328C112.942 24.344 113.014 24.36 113.094 24.376C114.07 24.616 114.862 24.872 115.47 25.144C116.094 25.4 116.606 25.76 117.006 26.224C117.406 26.688 117.606 27.296 117.606 28.048C117.606 29.104 117.174 29.912 116.31 30.472C115.462 31.016 114.422 31.288 113.19 31.288C112.406 31.288 111.726 31.192 111.15 31C110.574 30.808 110.046 30.568 109.566 30.28C109.438 30.2 109.31 30.12 109.182 30.04C109.054 29.96 108.934 29.888 108.822 29.824L109.518 31.672L109.446 31.768H107.886L106.614 26.8L107.862 26.44C108.182 27.096 108.574 27.68 109.038 28.192C109.518 28.688 110.094 29.088 110.766 29.392C111.454 29.68 112.23 29.824 113.094 29.824C113.894 29.824 114.55 29.68 115.062 29.392C115.574 29.104 115.83 28.688 115.83 28.144C115.83 27.728 115.678 27.384 115.374 27.112C115.07 26.84 114.678 26.624 114.198 26.464C113.718 26.304 113.014 26.104 112.086 25.864L111.966 25.84C111.006 25.616 110.174 25.368 109.47 25.096C108.782 24.808 108.206 24.416 107.742 23.92C107.278 23.424 107.046 22.8 107.046 22.048C107.046 21.008 107.438 20.2 108.222 19.624C109.006 19.048 110.006 18.76 111.222 18.76C111.91 18.76 112.51 18.848 113.022 19.024C113.534 19.184 113.998 19.4 114.414 19.672C114.51 19.736 114.598 19.792 114.678 19.84C114.774 19.872 114.862 19.912 114.942 19.96L114.342 18.352L114.414 18.232H116.046L117.318 22.984L115.974 23.392ZM123.61 31.264C122.314 31.264 121.314 30.968 120.61 30.376C119.922 29.768 119.578 28.984 119.578 28.024C119.578 27.064 119.874 26.32 120.466 25.792C121.058 25.264 121.77 24.896 122.602 24.688C123.434 24.48 124.434 24.328 125.602 24.232C126.29 24.168 126.85 24.104 127.282 24.04C127.714 23.96 128.058 23.832 128.314 23.656C128.586 23.464 128.722 23.216 128.722 22.912C128.722 22.096 128.466 21.448 127.954 20.968C127.442 20.488 126.762 20.248 125.914 20.248C125.258 20.248 124.658 20.384 124.114 20.656C123.57 20.912 123.098 21.28 122.698 21.76C122.298 22.24 121.97 22.8 121.714 23.44L121.69 23.488L120.394 23.2L121.69 18.256H123.322L123.418 18.376L122.794 19.984C123.002 19.888 123.218 19.76 123.442 19.6C123.81 19.36 124.202 19.16 124.618 19C125.05 18.84 125.57 18.76 126.178 18.76C127.442 18.76 128.45 19.192 129.202 20.056C129.97 20.904 130.354 22.048 130.354 23.488V29.632C130.546 29.632 131.09 29.536 131.986 29.344C132.034 29.328 132.082 29.32 132.13 29.32C132.178 29.304 132.226 29.288 132.274 29.272L132.346 29.416L131.89 31H128.674V30.76C128.69 30.568 128.698 30.36 128.698 30.136C128.714 29.896 128.722 29.656 128.722 29.416C128.722 29.256 128.722 29.112 128.722 28.984C128.738 28.84 128.746 28.704 128.746 28.576C128.33 29.392 127.65 30.048 126.706 30.544C125.762 31.024 124.73 31.264 123.61 31.264ZM123.874 29.752C124.754 29.752 125.57 29.56 126.322 29.176C127.074 28.792 127.658 28.28 128.074 27.64C128.506 27 128.722 26.304 128.722 25.552V24.832C128.434 25.04 128.01 25.216 127.45 25.36C126.89 25.488 126.29 25.576 125.65 25.624C124.242 25.704 123.178 25.92 122.458 26.272C121.754 26.608 121.402 27.16 121.402 27.928C121.402 28.52 121.618 28.976 122.05 29.296C122.498 29.6 123.106 29.752 123.874 29.752ZM148.373 29.416L147.893 31H144.461V30.76C144.525 29.672 144.557 28.392 144.557 26.92V24.64C144.557 23.328 144.229 22.296 143.573 21.544C142.917 20.776 142.029 20.392 140.909 20.392C140.221 20.392 139.597 20.576 139.037 20.944C138.477 21.312 138.037 21.824 137.717 22.48C137.397 23.136 137.237 23.856 137.237 24.64V26.92C137.237 28.152 137.269 29.432 137.333 30.76V31H135.365V30.76C135.429 29.432 135.461 28.152 135.461 26.92V20.368C135.173 20.368 134.629 20.464 133.829 20.656L133.517 20.728L133.445 20.584L133.901 19H135.533C135.773 19 136.053 18.992 136.373 18.976C136.693 18.96 136.933 18.936 137.093 18.904L137.117 19.096C137.101 19.448 137.085 19.8 137.069 20.152C137.053 20.504 137.037 20.856 137.021 21.208C137.437 20.456 138.013 19.864 138.749 19.432C139.501 18.984 140.341 18.76 141.269 18.76C142.293 18.76 143.189 18.992 143.957 19.456C144.725 19.92 145.317 20.584 145.733 21.448C146.149 22.312 146.357 23.32 146.357 24.472V29.632C146.565 29.632 147.109 29.536 147.989 29.344C148.037 29.328 148.085 29.32 148.133 29.32C148.181 29.304 148.229 29.288 148.277 29.272L148.373 29.416ZM155.693 31.24C154.589 31.24 153.597 30.968 152.717 30.424C151.837 29.88 151.141 29.136 150.629 28.192C150.117 27.232 149.861 26.168 149.861 25C149.861 23.832 150.117 22.776 150.629 21.832C151.141 20.872 151.837 20.12 152.717 19.576C153.597 19.032 154.589 18.76 155.693 18.76C156.605 18.76 157.421 18.968 158.141 19.384C158.877 19.784 159.461 20.344 159.893 21.064V15.568C159.557 15.568 158.933 15.664 158.021 15.856C157.877 15.872 157.757 15.896 157.661 15.928L157.565 15.784L158.117 14.2H160.181C160.453 14.2 160.733 14.192 161.021 14.176C161.325 14.16 161.573 14.136 161.765 14.104L161.789 14.296C161.773 14.6 161.757 14.912 161.741 15.232C161.741 15.552 161.741 15.88 161.741 16.216C161.725 16.552 161.709 16.896 161.693 17.248C161.693 17.6 161.693 17.944 161.693 18.28V29.632C161.981 29.632 162.501 29.536 163.253 29.344C163.317 29.328 163.373 29.32 163.421 29.32C163.485 29.304 163.549 29.288 163.613 29.272L163.685 29.416L163.229 31H159.989V30.76C160.005 30.6 160.013 30.432 160.013 30.256C160.029 30.08 160.045 29.912 160.061 29.752C160.061 29.592 160.061 29.432 160.061 29.272C160.077 29.096 160.085 28.928 160.085 28.768C159.637 29.536 159.029 30.144 158.261 30.592C157.493 31.024 156.637 31.24 155.693 31.24ZM155.861 29.656C156.629 29.656 157.325 29.456 157.949 29.056C158.573 28.64 159.061 28.08 159.413 27.376C159.781 26.656 159.965 25.864 159.965 25C159.965 24.136 159.781 23.352 159.413 22.648C159.061 21.928 158.573 21.368 157.949 20.968C157.325 20.552 156.629 20.344 155.861 20.344C155.093 20.344 154.389 20.552 153.749 20.968C153.125 21.368 152.637 21.928 152.285 22.648C151.933 23.352 151.757 24.136 151.757 25C151.757 25.864 151.933 26.656 152.285 27.376C152.637 28.08 153.125 28.64 153.749 29.056C154.389 29.456 155.093 29.656 155.861 29.656ZM169.384 31.264C168.088 31.264 167.088 30.968 166.384 30.376C165.696 29.768 165.352 28.984 165.352 28.024C165.352 27.064 165.648 26.32 166.24 25.792C166.832 25.264 167.544 24.896 168.376 24.688C169.208 24.48 170.208 24.328 171.376 24.232C172.064 24.168 172.624 24.104 173.056 24.04C173.488 23.96 173.832 23.832 174.088 23.656C174.36 23.464 174.496 23.216 174.496 22.912C174.496 22.096 174.24 21.448 173.728 20.968C173.216 20.488 172.536 20.248 171.688 20.248C171.032 20.248 170.432 20.384 169.888 20.656C169.344 20.912 168.872 21.28 168.472 21.76C168.072 22.24 167.744 22.8 167.488 23.44L167.464 23.488L166.168 23.2L167.464 18.256H169.096L169.192 18.376L168.568 19.984C168.776 19.888 168.992 19.76 169.216 19.6C169.584 19.36 169.976 19.16 170.392 19C170.824 18.84 171.344 18.76 171.952 18.76C173.216 18.76 174.224 19.192 174.976 20.056C175.744 20.904 176.128 22.048 176.128 23.488V29.632C176.32 29.632 176.864 29.536 177.76 29.344C177.808 29.328 177.856 29.32 177.904 29.32C177.952 29.304 178 29.288 178.048 29.272L178.12 29.416L177.664 31H174.448V30.76C174.464 30.568 174.472 30.36 174.472 30.136C174.488 29.896 174.496 29.656 174.496 29.416C174.496 29.256 174.496 29.112 174.496 28.984C174.512 28.84 174.52 28.704 174.52 28.576C174.104 29.392 173.424 30.048 172.48 30.544C171.536 31.024 170.504 31.264 169.384 31.264ZM169.648 29.752C170.528 29.752 171.344 29.56 172.096 29.176C172.848 28.792 173.432 28.28 173.848 27.64C174.28 27 174.496 26.304 174.496 25.552V24.832C174.208 25.04 173.784 25.216 173.224 25.36C172.664 25.488 172.064 25.576 171.424 25.624C170.016 25.704 168.952 25.92 168.232 26.272C167.528 26.608 167.176 27.16 167.176 27.928C167.176 28.52 167.392 28.976 167.824 29.296C168.272 29.6 168.88 29.752 169.648 29.752ZM188.387 31.672L189.083 29.896C188.987 29.944 188.883 30.008 188.771 30.088C188.659 30.168 188.531 30.248 188.387 30.328C188.019 30.6 187.611 30.824 187.163 31C186.731 31.16 186.219 31.24 185.627 31.24C184.507 31.24 183.483 30.976 182.555 30.448C181.643 29.92 180.923 29.184 180.395 28.24C179.867 27.296 179.603 26.232 179.603 25.048C179.603 23.848 179.875 22.776 180.419 21.832C180.963 20.872 181.699 20.12 182.627 19.576C183.571 19.032 184.611 18.76 185.747 18.76C186.915 18.76 187.947 19.024 188.843 19.552C189.755 20.08 190.467 20.816 190.979 21.76C191.491 22.688 191.747 23.744 191.747 24.928C191.747 25.072 191.747 25.208 191.747 25.336C191.747 25.448 191.739 25.568 191.723 25.696H181.403C181.483 26.464 181.707 27.16 182.075 27.784C182.459 28.392 182.955 28.872 183.563 29.224C184.187 29.56 184.891 29.728 185.675 29.728C186.331 29.728 186.939 29.6 187.499 29.344C188.075 29.072 188.555 28.728 188.939 28.312C189.339 27.896 189.619 27.464 189.779 27.016L189.803 26.968L191.315 27.352L190.115 31.768H188.483L188.387 31.672ZM189.899 24.232C189.803 23.448 189.571 22.76 189.203 22.168C188.851 21.576 188.363 21.12 187.739 20.8C187.131 20.48 186.443 20.32 185.675 20.32C184.907 20.32 184.211 20.488 183.587 20.824C182.979 21.144 182.483 21.6 182.099 22.192C181.731 22.784 181.507 23.464 181.427 24.232H189.899Z" fill="#9A9A9A"/>
</svg>
