<svg width="122" height="122" viewBox="0 0 122 122" fill="none" xmlns="http://www.w3.org/2000/svg">
<circle cx="5" cy="5" r="5" fill="white" fill-opacity="0.08"/>
<circle cx="5" cy="69" r="5" fill="white" fill-opacity="0.08"/>
<circle cx="69" cy="5" r="5" fill="white" fill-opacity="0.08"/>
<circle cx="69" cy="69" r="5" fill="white" fill-opacity="0.08"/>
<circle cx="5" cy="37" r="5" fill="white" fill-opacity="0.08"/>
<circle cx="5" cy="101" r="5" fill="white" fill-opacity="0.08"/>
<circle cx="69" cy="37" r="5" fill="white" fill-opacity="0.08"/>
<circle cx="69" cy="101" r="5" fill="white" fill-opacity="0.08"/>
<circle cx="5" cy="21" r="5" fill="white" fill-opacity="0.08"/>
<circle cx="5" cy="85" r="5" fill="white" fill-opacity="0.08"/>
<circle cx="69" cy="21" r="5" fill="white" fill-opacity="0.08"/>
<circle cx="69" cy="85" r="5" fill="white" fill-opacity="0.08"/>
<circle cx="5" cy="53" r="5" fill="white" fill-opacity="0.08"/>
<circle cx="5" cy="117" r="5" fill="white" fill-opacity="0.08"/>
<circle cx="69" cy="53" r="5" fill="white" fill-opacity="0.08"/>
<circle cx="69" cy="117" r="5" fill="white" fill-opacity="0.08"/>
<circle cx="37" cy="5" r="5" fill="white" fill-opacity="0.08"/>
<circle cx="37" cy="69" r="5" fill="white" fill-opacity="0.08"/>
<circle cx="101" cy="5" r="5" fill="white" fill-opacity="0.08"/>
<circle cx="101" cy="69" r="5" fill="white" fill-opacity="0.08"/>
<circle cx="37" cy="37" r="5" fill="white" fill-opacity="0.08"/>
<circle cx="37" cy="101" r="5" fill="white" fill-opacity="0.08"/>
<circle cx="101" cy="37" r="5" fill="white" fill-opacity="0.08"/>
<circle cx="101" cy="101" r="5" fill="white" fill-opacity="0.08"/>
<circle cx="37" cy="21" r="5" fill="white" fill-opacity="0.08"/>
<circle cx="37" cy="85" r="5" fill="white" fill-opacity="0.08"/>
<circle cx="101" cy="21" r="5" fill="white" fill-opacity="0.08"/>
<circle cx="101" cy="85" r="5" fill="white" fill-opacity="0.08"/>
<circle cx="37" cy="53" r="5" fill="white" fill-opacity="0.08"/>
<circle cx="37" cy="117" r="5" fill="white" fill-opacity="0.08"/>
<circle cx="101" cy="53" r="5" fill="white" fill-opacity="0.08"/>
<circle cx="101" cy="117" r="5" fill="white" fill-opacity="0.08"/>
<circle cx="21" cy="5" r="5" fill="white" fill-opacity="0.08"/>
<circle cx="21" cy="69" r="5" fill="white" fill-opacity="0.08"/>
<circle cx="85" cy="5" r="5" fill="white" fill-opacity="0.08"/>
<circle cx="85" cy="69" r="5" fill="white" fill-opacity="0.08"/>
<circle cx="21" cy="37" r="5" fill="white" fill-opacity="0.08"/>
<circle cx="21" cy="101" r="5" fill="white" fill-opacity="0.08"/>
<circle cx="85" cy="37" r="5" fill="white" fill-opacity="0.08"/>
<circle cx="85" cy="101" r="5" fill="white" fill-opacity="0.08"/>
<circle cx="21" cy="21" r="5" fill="white" fill-opacity="0.08"/>
<circle cx="21" cy="85" r="5" fill="white" fill-opacity="0.08"/>
<circle cx="85" cy="21" r="5" fill="white" fill-opacity="0.08"/>
<circle cx="85" cy="85" r="5" fill="white" fill-opacity="0.08"/>
<circle cx="21" cy="53" r="5" fill="white" fill-opacity="0.08"/>
<circle cx="21" cy="117" r="5" fill="white" fill-opacity="0.08"/>
<circle cx="85" cy="53" r="5" fill="white" fill-opacity="0.08"/>
<circle cx="85" cy="117" r="5" fill="white" fill-opacity="0.08"/>
<circle cx="53" cy="5" r="5" fill="white" fill-opacity="0.08"/>
<circle cx="53" cy="69" r="5" fill="white" fill-opacity="0.08"/>
<circle cx="117" cy="5" r="5" fill="white" fill-opacity="0.08"/>
<circle cx="117" cy="69" r="5" fill="white" fill-opacity="0.08"/>
<circle cx="53" cy="37" r="5" fill="white" fill-opacity="0.08"/>
<circle cx="53" cy="101" r="5" fill="white" fill-opacity="0.08"/>
<circle cx="117" cy="37" r="5" fill="white" fill-opacity="0.08"/>
<circle cx="117" cy="101" r="5" fill="white" fill-opacity="0.08"/>
<circle cx="53" cy="21" r="5" fill="white" fill-opacity="0.08"/>
<circle cx="53" cy="85" r="5" fill="white" fill-opacity="0.08"/>
<circle cx="117" cy="21" r="5" fill="white" fill-opacity="0.08"/>
<circle cx="117" cy="85" r="5" fill="white" fill-opacity="0.08"/>
<circle cx="53" cy="53" r="5" fill="white" fill-opacity="0.08"/>
<circle cx="53" cy="117" r="5" fill="white" fill-opacity="0.08"/>
<circle cx="117" cy="53" r="5" fill="white" fill-opacity="0.08"/>
<circle cx="117" cy="117" r="5" fill="white" fill-opacity="0.08"/>
</svg>
